<?xml version="1.0" standalone="no"?>
<!DOCTYPE svg PUBLIC "-//W3C//DTD SVG 20010904//EN"
 "http://www.w3.org/TR/2001/REC-SVG-20010904/DTD/svg10.dtd">
<svg version="1.0" xmlns="http://www.w3.org/2000/svg"
 width="905.000000pt" height="116.000000pt" viewBox="0 0 905.000000 116.000000"
 preserveAspectRatio="xMidYMid meet">

<g transform="translate(0.000000,116.000000) scale(0.100000,-0.100000)"
fill="#000000" stroke="none">
<path d="M520 1040 c0 -21 5 -30 16 -30 11 0 14 5 10 16 -3 9 -6 22 -6 30 0 8
-4 14 -10 14 -5 0 -10 -13 -10 -30z"/>
<path d="M590 1045 c0 -16 6 -25 15 -25 9 0 15 9 15 25 0 16 -6 25 -15 25 -9
0 -15 -9 -15 -25z"/>
<path d="M670 1056 c0 -8 -3 -21 -6 -30 -4 -11 -1 -16 10 -16 11 0 16 9 16 30
0 17 -4 30 -10 30 -5 0 -10 -6 -10 -14z"/>
<path d="M446 1023 c8 -34 10 -37 22 -29 14 8 2 56 -14 56 -11 0 -13 -7 -8
-27z"/>
<path d="M736 1028 c-8 -34 11 -46 24 -14 13 35 13 36 -4 36 -7 0 -16 -10 -20
-22z"/>
<path d="M370 1013 c1 -20 28 -55 34 -45 8 13 -10 52 -24 52 -6 0 -10 -3 -10
-7z"/>
<path d="M802 995 c-9 -20 -9 -25 3 -25 12 0 35 28 35 44 0 17 -28 2 -38 -19z"/>
<path d="M310 961 c12 -23 29 -35 36 -28 10 9 -16 47 -32 47 -11 0 -12 -4 -4
-19z"/>
<path d="M872 968 c-14 -14 -16 -38 -4 -38 12 0 32 23 32 37 0 16 -12 17 -28
1z"/>
<path d="M250 922 c0 -14 36 -43 43 -35 4 3 0 15 -10 25 -17 19 -33 24 -33 10z"/>
<path d="M927 912 c-10 -10 -14 -22 -10 -25 7 -8 43 21 43 35 0 14 -16 9 -33
-10z"/>
<path d="M654 892 c-16 -5 -19 -10 -10 -17 8 -7 16 -5 29 7 18 19 15 20 -19
10z"/>
<path d="M713 889 c13 -7 17 -18 13 -33 -3 -11 -1 -28 4 -36 8 -12 10 -12 10
-1 0 11 5 10 20 -4 11 -10 17 -21 15 -26 -3 -4 -1 -10 5 -14 6 -4 8 -11 5 -16
-4 -5 1 -9 9 -9 24 0 20 12 -19 57 -19 23 -35 47 -35 55 0 17 -20 38 -34 38
-6 0 -3 -5 7 -11z"/>
<path d="M200 866 c0 -16 38 -42 47 -32 7 7 -5 24 -28 36 -15 8 -19 7 -19 -4z"/>
<path d="M519 867 c34 -12 57 -41 28 -35 -18 4 -21 -1 -12 -24 4 -10 11 -16
16 -13 4 3 17 0 27 -6 14 -9 24 -9 38 -1 10 6 13 12 7 12 -7 0 -13 5 -13 11 0
8 5 8 15 -1 14 -11 22 -60 10 -60 -3 0 -14 5 -24 12 -15 9 -24 8 -45 -5 -14
-10 -26 -25 -25 -35 0 -14 2 -14 9 3 7 19 9 18 19 -7 13 -34 16 -35 16 -4 0
13 -4 22 -9 19 -5 -3 -7 0 -4 7 7 23 24 21 36 -4 15 -34 9 -59 -19 -68 -21 -7
-21 -7 4 -3 15 3 38 8 51 11 18 4 25 1 29 -13 4 -15 5 -14 6 4 1 25 35 48 56
39 8 -3 17 -1 20 4 4 6 0 10 -7 10 -8 1 -5 7 7 16 20 15 20 15 0 12 -15 -2
-21 4 -26 27 -4 17 -7 24 -8 17 0 -7 -5 -10 -11 -7 -16 10 -12 -11 5 -25 22
-18 19 -28 -17 -47 -40 -21 -84 -28 -70 -10 5 7 13 27 17 46 9 40 22 56 49 56
11 0 21 6 24 13 2 6 -1 12 -8 12 -6 0 -8 -4 -5 -10 8 -12 -5 -13 -25 0 -9 6
-17 5 -22 -3 -5 -7 -8 -2 -8 13 0 18 -3 21 -9 11 -13 -21 -44 -5 -38 19 7 27
-2 25 -12 -2 -6 -17 -4 -25 8 -30 12 -5 11 -7 -6 -7 -14 -1 -23 5 -23 13 0 19
-39 46 -65 45 -13 0 -8 -4 14 -12z m86 -68 c15 -14 -9 -11 -43 7 -18 8 -32 17
-32 19 0 6 64 -17 75 -26z"/>
<path d="M975 860 c-10 -11 -16 -23 -12 -26 7 -7 47 14 47 26 0 19 -18 19 -35
0z"/>
<path d="M455 860 c-3 -5 -26 -10 -51 -10 -24 0 -44 -5 -44 -11 0 -5 -5 -7
-11 -3 -12 7 -75 -49 -90 -81 -8 -15 -6 -14 9 4 19 24 19 24 25 2 3 -12 20
-27 37 -35 33 -13 27 -31 -7 -20 -17 5 -17 5 0 -6 13 -8 22 -9 31 -1 7 6 16 8
19 4 4 -3 7 5 7 18 0 14 -3 19 -8 12 -5 -8 -15 -8 -40 2 -37 16 -44 51 -14 78
21 19 37 23 26 6 -3 -6 5 -4 19 6 55 35 120 -2 82 -47 -11 -13 -13 -17 -5 -10
8 6 25 13 40 13 14 1 18 3 10 5 -9 3 -21 18 -27 34 -9 25 -9 32 5 40 10 5 12
10 5 10 -6 0 -15 -4 -18 -10z"/>
<path d="M670 851 c0 -6 4 -12 8 -15 5 -3 9 1 9 9 0 8 -4 15 -9 15 -4 0 -8 -4
-8 -9z"/>
<path d="M1210 740 c0 -103 1 -110 20 -110 17 0 20 7 20 40 0 38 2 40 30 40
35 0 80 38 80 68 0 11 -9 31 -21 46 -18 22 -28 26 -75 26 l-54 0 0 -110z m95
40 c0 -20 -6 -26 -27 -28 -25 -3 -28 0 -28 28 0 28 3 31 28 28 21 -2 27 -8 27
-28z"/>
<path d="M1417 830 c-36 -29 -52 -81 -37 -125 16 -49 53 -75 107 -75 38 0 50
5 79 34 28 28 34 42 34 76 0 34 -6 48 -34 76 -29 29 -41 34 -79 34 -29 0 -53
-7 -70 -20z m122 -46 c27 -35 26 -59 -4 -89 -46 -47 -118 -19 -118 45 0 66 82
95 122 44z"/>
<path d="M1640 740 l0 -110 60 0 c53 0 60 2 60 20 0 17 -7 20 -40 20 l-40 0 0
90 c0 83 -1 90 -20 90 -19 0 -20 -7 -20 -110z"/>
<path d="M1790 740 c0 -103 1 -110 20 -110 19 0 20 7 20 110 0 103 -1 110 -20
110 -19 0 -20 -7 -20 -110z"/>
<path d="M1862 833 c2 -11 14 -19 31 -21 l27 -3 0 -90 c0 -82 1 -89 20 -89 19
0 20 7 20 90 0 89 0 90 25 90 18 0 25 5 25 20 0 18 -7 20 -76 20 -66 0 -75 -2
-72 -17z"/>
<path d="M2040 740 l0 -110 70 0 c63 0 70 2 70 20 0 17 -7 20 -50 20 -46 0
-50 2 -50 24 0 22 5 25 42 28 31 2 44 8 46 20 3 13 -6 17 -40 20 -36 2 -44 7
-46 26 -3 20 0 22 47 22 44 0 51 3 51 20 0 18 -7 20 -70 20 l-70 0 0 -110z"/>
<path d="M2239 821 c-24 -25 -29 -38 -29 -78 1 -90 81 -140 165 -101 29 13 31
21 10 38 -12 10 -19 10 -27 2 -19 -19 -57 -14 -83 13 -31 30 -31 54 -3 90 19
25 25 27 69 21 30 -4 50 -3 54 4 12 19 -28 39 -78 40 -41 0 -53 -5 -78 -29z"/>
<path d="M2430 740 c0 -103 1 -110 20 -110 18 0 20 7 20 65 0 36 3 65 8 65 4
0 33 -29 65 -65 32 -36 62 -65 68 -65 5 0 9 48 9 110 0 103 -1 110 -20 110
-18 0 -20 -7 -20 -67 l-1 -68 -62 68 c-34 37 -68 67 -74 67 -10 0 -13 -29 -13
-110z"/>
<path d="M2670 740 c0 -103 1 -110 20 -110 19 0 20 7 20 110 0 103 -1 110 -20
110 -19 0 -20 -7 -20 -110z"/>
<path d="M2790 821 c-33 -33 -45 -69 -36 -107 4 -15 20 -39 36 -55 23 -23 37
-29 72 -29 52 0 84 19 75 45 -5 12 -13 15 -25 10 -43 -18 -63 -17 -88 5 -30
29 -31 73 -3 101 18 18 29 20 65 15 27 -3 46 -1 50 6 11 18 -27 38 -74 38 -35
0 -49 -6 -72 -29z"/>
<path d="M3007 830 c-36 -29 -52 -81 -37 -125 16 -49 53 -75 107 -75 38 0 50
5 79 34 28 28 34 42 34 76 0 34 -6 48 -34 76 -29 29 -41 34 -79 34 -29 0 -53
-7 -70 -20z m122 -46 c27 -35 26 -59 -4 -89 -45 -46 -115 -19 -115 45 0 65 79
94 119 44z"/>
<path d="M3394 575 c0 -154 2 -216 3 -137 2 79 2 205 0 280 -1 75 -3 11 -3
-143z"/>
<path d="M3620 740 l0 -110 53 0 c52 0 87 15 114 50 15 19 17 94 3 121 -16 29
-64 49 -120 49 l-50 0 0 -110z m130 65 c49 -45 28 -126 -39 -146 -65 -19 -71
-12 -71 87 l0 87 45 -6 c25 -2 54 -12 65 -22z"/>
<path d="M3860 740 c0 -67 4 -110 10 -110 6 0 10 43 10 110 0 67 -4 110 -10
110 -6 0 -10 -43 -10 -110z"/>
<path d="M3950 740 c0 -91 3 -110 15 -110 11 0 15 11 15 40 0 40 0 40 38 40
70 0 108 74 62 120 -15 15 -33 20 -75 20 l-55 0 0 -110z m101 80 c43 -24 7
-90 -48 -90 -21 0 -23 5 -23 50 0 47 2 50 26 50 14 0 34 -5 45 -10z"/>
<path d="M4191 828 c-5 -13 -25 -58 -45 -101 -20 -43 -36 -82 -36 -88 0 -20
20 -8 35 21 14 27 20 30 65 30 45 0 51 -3 65 -30 14 -28 35 -41 35 -22 0 18
-90 207 -100 210 -5 2 -14 -7 -19 -20z m39 -65 c8 -21 16 -41 18 -45 2 -5 -15
-8 -38 -8 -36 0 -41 2 -35 18 4 9 12 29 17 45 13 36 21 34 38 -10z"/>
<path d="M4350 740 c0 -91 3 -110 15 -110 11 0 15 12 15 45 0 42 2 45 25 45
19 0 31 -9 43 -31 28 -50 40 -64 48 -57 4 4 -1 25 -10 47 -18 38 -18 39 3 60
26 26 27 65 1 91 -16 16 -33 20 -80 20 l-60 0 0 -110z m111 80 c21 -12 25 -50
7 -68 -7 -7 -29 -12 -50 -12 l-38 0 0 45 c0 44 1 45 31 45 17 0 39 -5 50 -10z"/>
<path d="M4540 840 c0 -5 14 -10 30 -10 l30 0 0 -100 c0 -60 4 -100 10 -100 6
0 10 40 10 100 l0 100 30 0 c17 0 30 5 30 10 0 6 -30 10 -70 10 -40 0 -70 -4
-70 -10z"/>
<path d="M4720 740 c0 -91 3 -110 15 -110 12 0 15 19 15 110 0 91 -3 110 -15
110 -12 0 -15 -19 -15 -110z"/>
<path d="M4840 848 c0 -2 -9 -50 -20 -108 -11 -58 -20 -106 -20 -107 0 -2 6
-3 14 -3 9 0 16 18 21 57 12 101 18 104 49 19 16 -42 32 -76 36 -76 8 0 35 64
55 130 7 23 8 23 15 5 4 -11 11 -44 15 -72 6 -49 19 -72 32 -60 5 6 -34 207
-42 215 -8 9 -14 -2 -44 -83 -16 -44 -31 -73 -35 -66 -4 6 -18 41 -30 78 -12
37 -28 69 -34 71 -7 2 -12 2 -12 0z"/>
<path d="M5090 740 l0 -110 70 0 c40 0 70 4 70 10 0 6 -25 10 -55 10 l-55 0 0
40 0 40 45 0 c25 0 45 5 45 10 0 6 -20 10 -45 10 l-45 0 0 40 0 40 55 0 c30 0
55 5 55 10 0 6 -30 10 -70 10 l-70 0 0 -110z"/>
<path d="M5290 740 c0 -130 18 -150 22 -25 l3 84 68 -84 c37 -47 72 -85 77
-85 6 0 10 45 10 110 0 90 -3 110 -15 110 -11 0 -15 -18 -17 -81 l-3 -82 -64
82 c-35 44 -68 81 -72 81 -5 0 -9 -49 -9 -110z"/>
<path d="M5510 840 c0 -5 14 -10 30 -10 l30 0 0 -100 c0 -60 4 -100 10 -100 6
0 10 40 10 100 l0 100 30 0 c17 0 30 5 30 10 0 6 -30 10 -70 10 -40 0 -70 -4
-70 -10z"/>
<path d="M5711 824 c-54 -45 -51 -129 7 -174 33 -27 101 -27 134 0 87 68 42
200 -67 200 -32 0 -51 -7 -74 -26z m121 -5 c28 -15 50 -72 39 -102 -12 -32
-58 -67 -86 -67 -28 0 -74 35 -86 67 -11 29 10 86 38 102 24 14 69 14 95 0z"/>
<path d="M6030 740 l0 -110 51 0 c56 0 85 12 111 44 20 24 24 96 8 127 -16 29
-64 49 -120 49 l-50 0 0 -110z m130 65 c49 -45 28 -126 -39 -146 -65 -19 -71
-12 -71 87 l0 87 45 -6 c25 -2 54 -12 65 -22z"/>
<path d="M6270 740 c0 -67 4 -110 10 -110 6 0 10 43 10 110 0 67 -4 110 -10
110 -6 0 -10 -43 -10 -110z"/>
<path d="M6440 740 l0 -110 70 0 c84 0 94 18 13 22 l-58 3 -3 38 -3 37 50 0
c64 0 67 18 4 22 -48 3 -48 3 -51 41 l-3 37 60 0 c34 0 61 4 61 10 0 6 -30 10
-70 10 l-70 0 0 -110z"/>
<path d="M6630 740 l0 -110 60 0 c33 0 60 4 60 10 0 6 -20 10 -45 10 l-45 0 0
100 c0 82 -3 100 -15 100 -12 0 -15 -19 -15 -110z"/>
<path d="M6790 740 l0 -110 70 0 c40 0 70 4 70 10 0 6 -25 10 -55 10 l-55 0 0
40 0 40 45 0 c25 0 45 5 45 10 0 6 -20 10 -45 10 l-45 0 0 40 0 40 55 0 c30 0
55 5 55 10 0 6 -30 10 -70 10 l-70 0 0 -110z"/>
<path d="M6960 840 c0 -5 14 -10 30 -10 l30 0 0 -100 c0 -60 4 -100 10 -100 6
0 10 40 10 100 l0 100 30 0 c17 0 30 5 30 10 0 6 -30 10 -70 10 -40 0 -70 -4
-70 -10z"/>
<path d="M7120 840 c0 -5 14 -10 30 -10 l30 0 0 -100 c0 -60 4 -100 10 -100 6
0 10 40 10 100 l0 100 30 0 c17 0 30 5 30 10 0 6 -30 10 -70 10 -40 0 -70 -4
-70 -10z"/>
<path d="M7310 740 c0 -67 4 -110 10 -110 6 0 10 20 10 45 0 43 1 45 28 45 23
0 32 -8 50 -45 12 -25 29 -45 37 -45 20 0 19 6 -6 47 l-21 34 21 23 c26 28 27
70 1 96 -15 15 -33 20 -75 20 l-55 0 0 -110z m111 69 c18 -18 19 -23 6 -42
-10 -16 -26 -23 -56 -25 l-41 -3 0 45 c0 46 0 46 35 46 22 0 43 -8 56 -21z"/>
<path d="M7540 821 c-33 -33 -45 -69 -36 -107 4 -15 20 -39 36 -55 23 -24 37
-29 74 -29 64 0 106 38 113 103 5 43 3 49 -30 82 -30 30 -42 35 -82 35 -38 0
-52 -5 -75 -29z m122 -2 c55 -29 53 -125 -3 -154 -40 -21 -63 -19 -98 11 -81
68 7 193 101 143z"/>
<path d="M7780 740 c0 -90 3 -110 15 -110 11 0 15 18 17 82 l3 82 65 -82 c36
-44 68 -81 73 -81 4 -1 7 49 7 109 0 129 -18 151 -22 28 l-3 -83 -65 82 c-36
45 -71 82 -77 82 -10 1 -13 -27 -13 -109z"/>
<path d="M8030 740 c0 -91 3 -110 15 -110 12 0 15 19 15 110 0 91 -3 110 -15
110 -12 0 -15 -19 -15 -110z"/>
<path d="M8148 821 c-29 -26 -33 -35 -33 -81 0 -46 4 -55 33 -81 24 -22 42
-29 73 -29 47 0 79 14 79 35 0 19 -10 18 -34 0 -30 -23 -65 -18 -97 14 -70 71
0 179 92 141 16 -7 33 -9 37 -6 14 14 -32 36 -75 36 -33 0 -50 -7 -75 -29z"/>
<path d="M8380 763 c-45 -96 -57 -133 -44 -133 5 0 17 14 26 30 15 27 22 30
67 30 46 0 52 -3 66 -30 14 -26 35 -41 35 -24 0 16 -94 214 -102 214 -4 0 -26
-39 -48 -87z m75 -15 l15 -38 -40 0 c-45 0 -47 5 -23 55 19 39 25 37 48 -17z"/>
<path d="M390 809 c-7 -11 -10 -23 -7 -25 2 -2 9 7 15 21 14 30 7 33 -8 4z"/>
<path d="M160 800 c0 -14 39 -32 52 -24 7 4 2 12 -13 20 -29 16 -39 17 -39 4z"/>
<path d="M1011 796 c-15 -8 -20 -16 -13 -20 13 -8 52 10 52 24 0 13 -10 12
-39 -4z"/>
<path d="M352 774 c10 -10 20 -16 22 -13 3 3 -5 11 -17 18 -21 13 -21 12 -5
-5z"/>
<path d="M465 754 c-11 -8 -25 -12 -31 -10 -7 3 -15 -2 -18 -10 -3 -8 -1 -14
4 -14 5 0 8 -6 6 -12 -1 -7 -1 -10 1 -5 3 4 9 5 14 2 5 -4 6 1 3 9 -3 9 3 19
16 26 19 10 20 9 14 -14 -7 -29 19 -47 38 -28 8 8 5 9 -11 5 -14 -4 -21 -1
-21 9 0 11 8 14 26 10 19 -3 25 -1 20 7 -4 6 -13 11 -21 11 -7 0 -15 6 -17 14
-3 13 -6 13 -23 0z"/>
<path d="M808 730 c-9 -17 -14 -30 -9 -30 4 0 13 11 19 25 6 14 17 25 23 25 8
0 8 -5 -1 -15 -7 -9 -11 -17 -9 -19 2 -2 12 7 22 20 18 24 18 24 -5 24 -15 0
-29 -10 -40 -30z"/>
<path d="M130 731 c0 -16 43 -31 54 -20 12 11 7 16 -27 24 -17 5 -27 3 -27 -4z"/>
<path d="M1038 733 c-15 -4 -27 -33 -14 -33 16 0 56 21 56 30 0 10 -12 11 -42
3z"/>
<path d="M771 688 c0 -16 0 -29 1 -30 5 -9 -25 -48 -38 -48 -9 0 -12 5 -8 13
4 6 4 9 -1 5 -4 -4 -16 -3 -26 2 -14 8 -21 6 -29 -11 -7 -11 -9 -23 -7 -26 3
-2 8 5 12 16 6 21 7 21 36 4 16 -9 25 -20 21 -23 -17 -11 -37 -96 -31 -125 6
-29 7 -29 8 8 0 20 5 37 10 37 5 0 7 9 4 20 -7 28 45 109 58 89 6 -10 9 -10 9
-1 0 6 8 12 18 13 11 1 9 3 -7 8 -20 5 -21 8 -9 18 11 10 19 9 36 -3 21 -14
21 -16 6 -42 l-16 -27 21 25 c11 14 21 30 21 35 0 6 4 4 8 -2 6 -9 18 -4 45
18 30 25 37 27 37 13 0 -10 3 -15 6 -11 4 3 4 13 0 22 -5 14 -10 13 -35 -6
-29 -21 -87 -36 -77 -20 3 4 1 13 -5 21 -7 12 -9 12 -9 1 0 -10 -3 -11 -14 -2
-11 9 -15 8 -21 -6 -7 -15 -9 -13 -15 12 l-8 30 -1 -27z"/>
<path d="M246 674 c-3 -9 -6 -28 -6 -42 0 -15 -9 -40 -20 -57 -19 -29 -13 -55
14 -55 6 0 3 5 -7 11 -14 8 -15 14 -6 31 9 17 13 18 20 7 8 -12 10 -11 8 1 -1
8 -1 29 1 45 1 27 2 28 11 10 7 -16 9 -14 6 12 -2 18 0 30 5 27 4 -3 8 2 8 10
0 21 -26 21 -34 0z"/>
<path d="M385 660 c9 -16 18 -30 21 -30 2 0 -2 14 -11 30 -9 17 -18 30 -21 30
-2 0 2 -13 11 -30z"/>
<path d="M300 671 c0 -4 11 -6 25 -3 14 2 25 6 25 8 0 2 -11 4 -25 4 -14 0
-25 -4 -25 -9z"/>
<path d="M516 672 c-2 -4 4 -8 14 -8 10 0 16 4 14 8 -3 4 -9 8 -14 8 -5 0 -11
-4 -14 -8z"/>
<path d="M110 651 c0 -5 14 -11 30 -13 20 -3 30 0 30 9 0 8 -12 13 -30 13 -16
0 -30 -4 -30 -9z"/>
<path d="M431 649 c-1 -17 29 -49 45 -49 5 0 1 5 -9 11 -10 6 -22 20 -27 32
-6 15 -9 17 -9 6z"/>
<path d="M1040 647 c0 -9 10 -12 30 -9 17 2 30 8 30 13 0 5 -13 9 -30 9 -18 0
-30 -5 -30 -13z"/>
<path d="M536 631 c-4 -5 3 -7 14 -4 23 6 26 13 6 13 -8 0 -17 -4 -20 -9z"/>
<path d="M634 618 c-6 -21 -7 -21 -20 -4 -7 10 -19 16 -26 13 -10 -4 -10 -6 0
-6 7 -1 21 -16 32 -33 18 -30 20 -31 20 -10 0 13 5 32 10 43 7 12 7 19 1 19
-5 0 -13 -10 -17 -22z"/>
<path d="M962 620 c0 -14 2 -19 5 -12 2 6 2 18 0 25 -3 6 -5 1 -5 -13z"/>
<path d="M391 604 c0 -11 3 -14 6 -6 3 7 2 16 -1 19 -3 4 -6 -2 -5 -13z"/>
<path d="M403 595 c-10 -23 -9 -25 15 -25 15 0 22 4 16 8 -7 4 -13 15 -15 24
-3 15 -6 13 -16 -7z"/>
<path d="M500 610 c-13 -8 -12 -11 5 -24 11 -9 15 -16 8 -16 -7 0 -2 -10 10
-23 24 -25 67 -23 75 4 4 11 2 12 -9 2 -15 -15 -43 -17 -34 -3 3 6 0 10 -7 10
-16 0 -41 37 -33 50 8 12 4 12 -15 0z"/>
<path d="M302 580 c0 -14 2 -19 5 -12 2 6 2 18 0 25 -3 6 -5 1 -5 -13z"/>
<path d="M110 575 c0 -9 9 -15 25 -15 16 0 25 6 25 15 0 9 -9 15 -25 15 -16 0
-25 -6 -25 -15z"/>
<path d="M781 564 c-1 -19 -7 -34 -17 -38 -8 -3 -14 -14 -12 -23 2 -10 -4 -27
-14 -37 -10 -11 -17 -29 -17 -40 1 -17 3 -16 7 4 4 24 5 24 13 5 9 -20 9 -20
6 0 -2 11 2 26 10 34 8 7 11 22 8 34 -6 21 -5 21 8 -1 13 -22 14 -21 29 28 9
28 12 52 7 56 -5 3 -10 -7 -10 -23 l-1 -28 -8 30 -8 30 -1 -31z"/>
<path d="M941 535 c0 -33 4 -69 8 -80 5 -12 7 9 4 50 -6 91 -11 105 -12 30z"/>
<path d="M1050 575 c0 -9 9 -15 25 -15 16 0 25 6 25 15 0 9 -9 15 -25 15 -16
0 -25 -6 -25 -15z"/>
<path d="M575 570 c-4 -6 2 -9 14 -7 29 4 39 17 13 17 -11 0 -24 -5 -27 -10z"/>
<path d="M666 564 c-6 -15 -4 -15 11 -3 10 7 20 15 22 16 2 2 -3 3 -11 3 -9 0
-19 -7 -22 -16z"/>
<path d="M345 560 c-8 -13 5 -13 25 0 13 8 13 10 -2 10 -9 0 -20 -4 -23 -10z"/>
<path d="M432 538 c-8 -10 -3 -13 18 -14 24 -1 26 1 15 12 -17 17 -20 17 -33
2z"/>
<path d="M626 533 c2 -7 -4 -19 -13 -28 -14 -14 -14 -18 1 -34 9 -10 14 -27
11 -37 -3 -10 1 -5 9 11 7 17 17 45 21 64 6 28 5 33 -8 28 -9 -3 -18 -3 -20 1
-2 4 -2 2 -1 -5z m16 -25 c-7 -7 -12 -8 -12 -2 0 14 12 26 19 19 2 -3 -1 -11
-7 -17z"/>
<path d="M344 522 c-9 -11 -22 -19 -28 -17 -6 2 -24 6 -39 10 -24 5 -27 4 -15
-8 7 -8 19 -12 25 -10 7 3 21 2 30 -2 15 -5 12 -10 -17 -26 -19 -11 -27 -18
-18 -15 13 4 18 -4 23 -35 4 -22 9 -38 13 -35 7 7 33 -14 28 -23 -3 -4 9 -14
25 -24 17 -9 27 -12 24 -7 -3 6 0 10 7 10 7 1 -3 9 -23 20 -45 24 -59 41 -65
79 -4 26 -2 31 14 31 15 0 19 5 15 20 -7 27 22 37 46 16 21 -19 31 -20 31 -4
0 6 -3 8 -7 5 -3 -4 -17 2 -29 14 l-22 21 -18 -20z"/>
<path d="M962 505 c0 -16 2 -22 5 -12 2 9 2 23 0 30 -3 6 -5 -1 -5 -18z"/>
<path d="M128 513 c-29 -7 -20 -23 12 -23 20 0 30 5 30 15 0 15 -9 17 -42 8z"/>
<path d="M826 485 c-21 -19 -43 -32 -48 -29 -5 4 -8 -4 -6 -17 4 -29 28 -38
28 -9 0 26 52 73 62 57 5 -7 8 -3 8 11 0 12 -1 22 -2 22 -2 -1 -20 -16 -42
-35z"/>
<path d="M1040 505 c0 -10 10 -15 30 -15 35 0 40 15 8 24 -34 9 -38 8 -38 -9z"/>
<path d="M1237 513 c-10 -17 -39 -204 -33 -211 12 -11 24 20 31 80 4 32 10 60
14 63 4 2 18 -29 31 -70 13 -41 29 -75 35 -75 6 0 22 32 35 71 14 39 27 72 31
74 3 2 11 -30 18 -71 7 -41 17 -74 22 -74 13 0 11 31 -8 132 -10 51 -21 87
-27 85 -6 -2 -22 -35 -36 -74 -14 -39 -28 -74 -31 -78 -4 -3 -19 30 -35 75
-27 75 -37 90 -47 73z"/>
<path d="M1490 410 c0 -91 3 -110 15 -110 12 0 15 19 15 110 0 91 -3 110 -15
110 -12 0 -15 -19 -15 -110z"/>
<path d="M1590 410 l0 -110 60 0 c33 0 60 4 60 10 0 6 -20 10 -45 10 l-45 0 0
100 c0 82 -3 100 -15 100 -12 0 -15 -19 -15 -110z"/>
<path d="M1789 433 c-59 -126 -61 -133 -45 -133 7 0 19 14 26 30 12 28 16 30
67 30 51 0 55 -2 64 -30 6 -16 18 -30 26 -30 8 0 13 4 11 9 -22 59 -94 211
-101 211 -4 0 -26 -39 -48 -87z m75 -15 l15 -38 -44 0 -45 0 22 45 c24 49 29
48 52 -7z"/>
<path d="M1980 410 c0 -131 18 -150 22 -22 l3 87 69 -85 c37 -47 72 -86 77
-88 5 -2 9 46 9 107 0 67 -4 111 -10 111 -6 0 -10 -33 -10 -80 0 -44 -3 -80
-7 -79 -5 0 -36 36 -71 80 -34 43 -67 79 -72 79 -6 0 -10 -46 -10 -110z"/>
<path d="M2264 502 c-45 -36 -57 -98 -30 -151 30 -58 124 -70 175 -22 27 25
31 36 31 81 0 44 -4 56 -29 81 -25 24 -38 29 -78 29 -30 0 -56 -7 -69 -18z
m127 -31 c40 -40 39 -82 -1 -123 -27 -26 -36 -30 -67 -25 -52 9 -78 38 -78 88
0 81 88 117 146 60z"/>
<path d="M2712 504 c-24 -16 -30 -62 -11 -81 9 -9 8 -16 -5 -28 -39 -39 -6
-95 56 -95 58 0 87 51 54 95 -12 16 -12 22 0 41 11 15 12 28 5 46 -15 40 -60
50 -99 22z m59 -14 c25 -14 24 -46 -1 -60 -43 -23 -84 35 -42 59 21 13 20 13
43 1z m9 -110 c28 -28 11 -60 -30 -60 -41 0 -58 32 -30 60 11 11 25 20 30 20
6 0 19 -9 30 -20z"/>
<path d="M2909 481 c-35 -34 -39 -44 -39 -88 0 -64 20 -93 66 -93 68 0 99 73
49 120 -19 17 -31 21 -55 17 -28 -6 -30 -5 -20 13 6 10 24 27 40 37 33 19 39
33 14 33 -9 0 -34 -17 -55 -39z m61 -81 c24 -24 24 -29 4 -58 -18 -26 -41 -28
-66 -5 -26 23 -23 62 5 73 32 13 35 12 57 -10z"/>
<path d="M3073 508 c-24 -11 -31 -28 -12 -28 6 0 19 4 29 10 13 7 24 5 40 -8
19 -16 21 -22 11 -40 -7 -13 -21 -22 -35 -22 -39 0 -39 -14 1 -25 31 -8 39
-16 41 -37 3 -22 -2 -29 -24 -34 -16 -4 -35 -2 -46 5 -26 16 -47 2 -23 -16 31
-22 91 -17 109 9 20 29 20 47 -1 70 -13 14 -14 21 -5 30 20 20 14 65 -10 82
-26 18 -44 19 -75 4z"/>
<path d="M3620 410 c0 -67 4 -110 10 -110 6 0 10 43 10 110 0 67 -4 110 -10
110 -6 0 -10 -43 -10 -110z"/>
<path d="M3710 410 c0 -90 3 -110 15 -110 11 0 15 18 17 82 l3 83 65 -83 c36
-45 68 -82 73 -82 4 0 7 50 7 110 0 129 -18 151 -22 28 l-3 -83 -65 82 c-36
45 -71 82 -77 82 -10 1 -13 -27 -13 -109z"/>
<path d="M3960 410 c0 -91 3 -110 15 -110 11 0 15 12 15 45 l0 45 45 0 c25 0
45 5 45 10 0 6 -20 10 -45 10 l-45 0 0 45 0 45 55 0 c30 0 55 5 55 10 0 6 -30
10 -70 10 l-70 0 0 -110z"/>
<path d="M4184 509 c-35 -18 -57 -66 -51 -113 16 -120 183 -133 218 -16 14 47
0 90 -39 120 -27 22 -92 26 -128 9z m120 -34 c39 -36 37 -94 -5 -129 -17 -14
-39 -26 -50 -26 -37 0 -77 29 -89 64 -29 88 76 154 144 91z"/>
<path d="M4410 410 c0 -91 3 -110 15 -110 11 0 15 12 15 45 0 42 2 45 25 45
19 0 31 -9 43 -31 28 -51 40 -64 49 -56 4 5 -2 25 -13 46 l-21 38 24 21 c28
25 30 61 3 90 -17 18 -32 22 -80 22 l-60 0 0 -110z m114 74 c36 -35 12 -74
-46 -74 l-38 0 0 45 c0 45 0 45 34 45 19 0 42 -7 50 -16z"/>
<path d="M4646 503 c-12 -41 -37 -195 -32 -200 13 -13 25 12 31 65 10 91 20
93 47 11 13 -40 29 -74 35 -76 6 -2 24 33 39 79 l28 83 15 -82 c10 -59 18 -83
29 -83 10 0 12 7 9 23 -3 12 -13 62 -23 110 -9 48 -21 86 -27 84 -5 -1 -21
-34 -34 -72 -14 -39 -28 -73 -32 -77 -3 -4 -19 28 -35 72 -28 80 -40 95 -50
63z"/>
<path d="M4920 419 c-25 -56 -46 -105 -48 -110 -2 -5 3 -9 11 -9 8 0 20 14 26
30 9 28 13 30 64 30 51 0 55 -2 67 -30 13 -30 30 -40 30 -17 0 22 -85 207 -95
207 -6 0 -31 -45 -55 -101z m79 -37 c-10 -2 -29 -2 -42 0 l-24 3 19 45 20 45
23 -45 c22 -43 22 -45 4 -48z"/>
<path d="M5100 510 c0 -5 23 -10 50 -10 28 0 50 -3 50 -6 0 -3 -25 -46 -55
-95 -30 -49 -55 -91 -55 -94 0 -3 34 -5 75 -5 43 0 75 4 75 10 0 6 -25 10 -55
10 -30 0 -55 2 -55 4 0 3 23 41 51 86 72 117 73 110 -10 110 -41 0 -71 -4 -71
-10z"/>
<path d="M5290 410 c0 -67 4 -110 10 -110 6 0 10 43 10 110 0 67 -4 110 -10
110 -6 0 -10 -43 -10 -110z"/>
<path d="M5414 502 c-30 -24 -44 -55 -44 -97 0 -52 53 -105 104 -105 67 0 111
35 116 90 5 53 -1 73 -29 101 -25 24 -38 29 -78 29 -30 0 -56 -7 -69 -18z
m127 -31 c20 -20 29 -39 29 -61 0 -37 -47 -90 -80 -90 -87 0 -129 108 -63 160
37 29 79 26 114 -9z"/>
<path d="M5650 410 c0 -131 18 -150 22 -23 l3 88 69 -88 c38 -48 73 -87 78
-87 4 0 8 50 8 110 0 67 -4 110 -10 110 -6 0 -10 -33 -10 -80 0 -44 -3 -80 -7
-79 -5 0 -37 36 -72 80 -34 43 -67 79 -72 79 -5 0 -9 -49 -9 -110z"/>
<path d="M5900 410 l0 -110 65 0 c78 0 88 18 13 22 l-53 3 -3 38 -3 37 50 0
c64 0 67 18 4 22 -48 3 -48 3 -51 41 l-3 37 55 0 c31 0 56 5 56 10 0 6 -28 10
-65 10 l-65 0 0 -110z"/>
<path d="M6170 410 l0 -110 65 0 c78 0 88 18 13 22 l-53 3 -3 38 -3 37 45 0
c61 0 68 18 9 22 -48 3 -48 3 -51 41 l-3 37 55 0 c31 0 56 5 56 10 0 6 -28 10
-65 10 l-65 0 0 -110z"/>
<path d="M6440 410 l0 -110 48 0 c27 0 57 7 70 16 26 18 30 65 7 84 -11 9 -13
16 -5 24 5 5 10 25 10 43 0 40 -21 53 -84 53 l-46 0 0 -110z m100 71 c13 -25
13 -27 -6 -45 -8 -9 -29 -16 -45 -16 -27 0 -29 2 -29 40 0 39 1 40 35 40 24 0
37 -6 45 -19z m-2 -93 c30 -30 1 -68 -52 -68 -24 0 -26 4 -26 40 0 39 1 40 33
40 18 0 38 -5 45 -12z"/>
<path d="M6640 410 c0 -67 4 -110 10 -110 6 0 10 43 10 110 0 67 -4 110 -10
110 -6 0 -10 -43 -10 -110z"/>
<path d="M6749 491 c-24 -25 -29 -38 -29 -78 1 -71 42 -113 110 -113 98 0 148
117 81 189 -25 27 -36 31 -81 31 -44 0 -56 -4 -81 -29z m143 -21 c26 -27 30
-36 25 -67 -9 -52 -38 -78 -88 -78 -81 0 -117 88 -60 146 40 40 82 39 123 -1z"/>
<path d="M7000 410 c0 -67 4 -110 10 -110 6 0 10 43 10 110 0 67 -4 110 -10
110 -6 0 -10 -43 -10 -110z"/>
<path d="M7090 410 c0 -131 18 -150 22 -22 l3 87 69 -85 c37 -47 72 -86 77
-88 5 -2 9 46 9 107 0 129 -18 152 -22 29 l-3 -82 -68 82 c-37 45 -72 82 -77
82 -6 0 -10 -46 -10 -110z"/>
<path d="M7367 500 c-57 -45 -53 -144 6 -180 35 -22 97 -26 128 -10 14 8 19
21 19 50 0 39 -1 40 -35 40 -19 0 -35 -4 -35 -10 0 -5 9 -10 20 -10 14 0 20
-7 20 -24 0 -43 -84 -45 -118 -3 -7 8 -16 31 -19 51 -5 30 -1 40 25 66 32 32
68 38 104 19 25 -13 35 -5 18 16 -19 23 -101 20 -133 -5z"/>
<path d="M7580 410 l0 -110 65 0 c78 0 88 18 13 22 l-53 3 -3 38 -3 37 45 0
c61 0 68 18 9 22 -48 3 -48 3 -51 41 l-3 37 55 0 c31 0 56 5 56 10 0 6 -28 10
-65 10 l-65 0 0 -110z"/>
<path d="M7791 494 c-77 -65 -31 -194 70 -194 21 0 49 4 63 10 22 8 26 16 26
50 0 39 -1 40 -35 40 -19 0 -35 -4 -35 -10 0 -5 9 -10 20 -10 14 0 20 -7 20
-24 0 -19 -7 -26 -28 -31 -77 -16 -137 60 -100 128 24 46 63 58 113 35 31 -14
47 -1 21 18 -33 23 -100 18 -135 -12z"/>
<path d="M8000 410 c0 -91 3 -110 15 -110 12 0 15 16 15 86 l0 87 68 -86 c37
-47 70 -86 75 -87 4 0 7 50 7 110 0 129 -18 151 -22 28 l-3 -83 -65 83 c-36
45 -71 82 -77 82 -10 0 -13 -29 -13 -110z"/>
<path d="M8250 410 l0 -110 70 0 c40 0 70 4 70 10 0 6 -25 10 -55 10 l-55 0 0
40 0 40 45 0 c25 0 45 5 45 10 0 6 -20 10 -45 10 l-45 0 0 40 0 40 55 0 c30 0
55 5 55 10 0 6 -30 10 -70 10 l-70 0 0 -110z"/>
<path d="M8450 410 c0 -67 4 -110 10 -110 6 0 10 20 10 45 0 43 1 45 30 45 26
0 33 -6 52 -45 12 -25 28 -45 35 -45 18 0 16 9 -8 49 l-20 33 20 22 c12 13 21
36 21 53 0 45 -27 63 -93 63 l-57 0 0 -110z m111 69 c18 -18 19 -23 6 -42 -10
-16 -26 -23 -56 -25 l-41 -3 0 45 c0 46 0 46 35 46 22 0 43 -8 56 -21z"/>
<path d="M8660 410 c0 -67 4 -110 10 -110 6 0 10 43 10 110 0 67 -4 110 -10
110 -6 0 -10 -43 -10 -110z"/>
<path d="M8775 424 c-25 -53 -45 -103 -45 -110 0 -24 17 -15 30 16 12 28 16
30 67 30 51 0 55 -2 64 -30 6 -16 18 -30 26 -30 17 0 18 -3 -39 126 -23 52
-46 94 -50 94 -5 0 -29 -43 -53 -96z m79 -6 l15 -38 -44 0 -45 0 22 45 c24 49
29 48 52 -7z"/>
<path d="M531 494 c-1 -12 -10 -33 -21 -47 -23 -29 -25 -38 -7 -31 8 3 20 -2
27 -11 7 -8 23 -15 37 -15 20 0 22 2 11 14 -7 8 -15 10 -17 4 -1 -5 -11 -2
-21 7 -15 14 -17 22 -8 46 5 16 8 34 5 41 -3 7 -6 3 -6 -8z"/>
<path d="M2577 492 c-23 -25 -21 -35 3 -27 19 6 20 2 20 -79 0 -51 4 -86 10
-86 6 0 10 42 10 105 0 111 -8 126 -43 87z"/>
<path d="M506 483 c-6 -14 -5 -15 5 -6 7 7 10 15 7 18 -3 3 -9 -2 -12 -12z"/>
<path d="M445 462 c-3 -8 -3 -17 0 -20 3 -3 5 0 5 6 0 16 27 15 33 0 4 -8 6
-7 6 3 1 22 -36 32 -44 11z"/>
<path d="M670 465 c-7 -9 -11 -17 -9 -20 3 -2 10 5 17 15 14 24 10 26 -8 5z"/>
<path d="M572 450 c0 -14 2 -19 5 -12 2 6 2 18 0 25 -3 6 -5 1 -5 -13z"/>
<path d="M837 432 c-14 -29 -14 -33 -2 -18 8 11 15 24 15 29 0 20 30 -16 31
-37 0 -11 3 -15 6 -8 2 6 10 9 16 6 7 -4 -1 8 -18 27 -16 19 -30 35 -31 36 0
2 -8 -14 -17 -35z"/>
<path d="M148 443 c-15 -4 -27 -33 -14 -33 19 0 56 22 51 30 -6 10 -9 11 -37
3z"/>
<path d="M1020 440 c0 -6 12 -15 26 -20 33 -13 34 -13 34 4 0 7 -10 16 -22 20
-32 8 -38 7 -38 -4z"/>
<path d="M448 417 c21 -25 4 -42 -20 -20 -20 18 -21 18 -7 -4 18 -30 39 -37
57 -19 17 16 10 31 -21 48 -20 10 -21 10 -9 -5z"/>
<path d="M652 409 c-7 -11 -11 -23 -9 -25 7 -7 29 24 25 36 -2 6 -9 1 -16 -11z"/>
<path d="M691 412 c-1 -25 25 -40 41 -24 8 8 5 9 -10 5 -16 -4 -21 1 -25 19
l-4 23 -2 -23z"/>
<path d="M600 406 c0 -2 7 -6 15 -10 8 -3 15 -1 15 4 0 6 -7 10 -15 10 -8 0
-15 -2 -15 -4z"/>
<path d="M183 377 c-13 -5 -23 -16 -23 -24 0 -17 11 -17 34 0 26 19 17 37 -11
24z"/>
<path d="M815 363 c4 -28 1 -33 -15 -33 -13 0 -20 7 -20 19 0 11 -4 22 -8 25
-5 3 -6 -8 -4 -25 3 -22 9 -29 28 -29 30 0 35 10 24 46 l-10 29 5 -32z"/>
<path d="M997 376 c-3 -8 5 -18 19 -25 32 -14 34 -14 34 2 0 20 -47 40 -53 23z"/>
<path d="M630 354 c0 -18 -6 -24 -22 -25 -22 0 -22 -1 -3 -8 11 -5 25 -4 33 2
7 5 15 7 18 4 4 -3 12 -1 19 6 9 9 9 14 -3 26 -24 24 -42 22 -42 -5z"/>
<path d="M840 370 c0 -5 5 -10 11 -10 5 0 7 5 4 10 -3 6 -8 10 -11 10 -2 0 -4
-4 -4 -10z"/>
<path d="M893 365 c0 -8 7 -15 15 -15 12 0 12 3 2 15 -7 8 -13 15 -15 15 -1 0
-2 -7 -2 -15z"/>
<path d="M500 348 c-12 -22 -12 -22 6 -6 10 10 15 20 12 24 -4 3 -12 -5 -18
-18z"/>
<path d="M320 333 c0 -16 -2 -16 -11 -3 -9 12 -10 12 -7 1 7 -24 28 -25 28 -2
0 12 -2 21 -5 21 -3 0 -5 -8 -5 -17z"/>
<path d="M439 326 c18 -10 20 -15 10 -19 -10 -4 -10 -6 3 -6 15 -1 35 16 27
23 -2 2 -17 6 -34 10 -30 6 -30 6 -6 -8z"/>
<path d="M715 330 c27 -12 43 -12 25 0 -8 5 -22 9 -30 9 -10 0 -8 -3 5 -9z"/>
<path d="M210 305 c-7 -9 -10 -19 -6 -22 8 -9 38 9 44 25 5 17 -23 15 -38 -3z"/>
<path d="M505 310 c-3 -5 -1 -10 4 -10 6 0 11 5 11 10 0 6 -2 10 -4 10 -3 0
-8 -4 -11 -10z"/>
<path d="M570 310 c13 -9 13 -10 0 -11 -8 0 -1 -7 15 -14 37 -17 59 -19 49 -4
-4 7 0 9 13 5 11 -4 31 -2 44 3 13 5 19 10 12 10 -6 1 -20 4 -30 7 -12 4 -14
3 -6 -3 9 -6 -5 -9 -37 -9 -27 0 -45 3 -39 7 7 4 5 9 -6 13 -24 9 -32 7 -15
-4z"/>
<path d="M705 310 c27 -12 43 -12 25 0 -8 5 -22 9 -30 9 -10 0 -8 -3 5 -9z"/>
<path d="M962 308 c6 -17 36 -34 45 -24 4 4 -1 14 -11 22 -24 17 -39 18 -34 2z"/>
<path d="M265 250 c-25 -27 -10 -39 16 -13 12 11 17 23 11 27 -5 3 -17 -3 -27
-14z"/>
<path d="M910 262 c0 -14 39 -46 47 -39 3 4 -2 16 -12 27 -19 21 -35 26 -35
12z"/>
<path d="M316 201 c-13 -14 -14 -21 -5 -27 7 -4 18 1 26 11 26 36 9 49 -21 16z"/>
<path d="M860 213 c0 -5 6 -18 14 -29 17 -22 35 -11 20 13 -12 19 -34 29 -34
16z"/>
<path d="M382 165 c-14 -31 -15 -35 -2 -35 15 0 33 41 23 51 -6 6 -14 -1 -21
-16z"/>
<path d="M803 182 c-8 -5 -6 -14 7 -32 23 -31 36 -21 18 14 -8 15 -18 22 -25
18z"/>
<path d="M446 134 c-12 -48 14 -44 29 4 4 16 2 22 -8 22 -8 0 -18 -12 -21 -26z"/>
<path d="M734 138 c3 -13 6 -26 6 -30 0 -8 30 -11 30 -4 0 3 -4 16 -10 30 -12
32 -35 35 -26 4z"/>
<path d="M520 110 c0 -16 4 -30 9 -30 5 0 11 13 13 30 3 20 0 30 -9 30 -8 0
-13 -12 -13 -30z"/>
<path d="M590 110 c0 -20 5 -30 15 -30 10 0 15 10 15 30 0 20 -5 30 -15 30
-10 0 -15 -10 -15 -30z"/>
<path d="M664 124 c3 -9 6 -22 6 -30 0 -8 5 -14 10 -14 6 0 10 14 10 30 0 21
-5 30 -16 30 -11 0 -14 -5 -10 -16z"/>
</g>
</svg>
