<svg xmlns="http://www.w3.org/2000/svg" width="800" height="800" viewBox="0 0 600 600"><path d="M285 36q-6 7-1 12 4 4 9 0 4-2 3-6 1-5-3-7-4-4-8 1m7 3q5 6-3 7c-5 0-7-5-3-7q4-3 6 0M301 36l-2 6q1 6 6 8l5-2q3-2 3-6 0-5-3-7-4-4-9 1m9 4v4c-4 4-10 1-8-4q1-3 4-2z"/><path d="M266 37c-4 3-1 14 4 14l5-2q6-6 1-11-6-4-10-2m7 4q5 2 1 5-3 3-6 0-4-3 0-5 0-3 5-1M319 37q-3 6 0 11c3 4 13 0 13-6s-10-10-13-5m8 4q3 4-1 5c-5 2-9-3-6-6q4-2 7 1M248 40q-5 5-1 12 5 5 11-1 5-5-1-11l-5-3zm8 4q3 4-1 6h-5q-6-6 2-7zM336 39c-4 4-2 13 3 15l6-2q4-2 3-6 0-7-7-9-2 0-5 2m8 4q2 5-2 6c-4 1-8-4-5-6 1-2 6-1 7 0M227 45c-4 5-1 13 6 13q6-1 8-7 1-3-3-6-6-6-11 0m9 3q3 1 1 4c-2 4-9 2-9-2s6-5 8-2M354 44l-2 4 3 9c4 3 13-2 13-7l-3-7q-6-2-11 1m9 3q4 6-2 7l-4-1q-3-6 3-8zM373 48c-5 8-1 15 6 13q5 0 7-7 1-3-3-6-6-6-10 0m9 3q3 4-2 6h-4c-2-2-2-7-1-7q4-1 7 1M211 49q-2 1-2 6 0 8 7 8c6 0 9-9 5-13q-4-4-10-1m7 4c4 2 2 7-2 7l-4-1v-6zM390 53q-4 2-3 7c1 8 8 11 13 5q6-7 0-13-4-5-10 1m9 6q0 3-3 4-6 0-6-4t6-4q3 0 3 4M193 56c-3 5 1 13 6 13 7 0 10-9 5-13q-6-6-11 0m9 3q5 5-4 6-3 0-3-3 1-7 7-3M280 58c-8 0-8 0-9 3l-2 4q1 2 5-1l6-2h5v6l2 18-1 14q-6 5 10 3 3 0-1-4-2 0-3-14c-1-18-1-23 1-23q7-1 10 2 4 3 3-4l-1-3h-9zM309 58l2 3c2 2 2 4 1 19q0 17-2 18l-3 2q-5 3 12 3c12 1 12 1 14-2 4-5 3-10-1-5q-1 3-8 3h-6v-8c0-8 0-8 2-9l3 2q3 5 3-1l2-5 1-3q-1-2-4 1c-1 2-6 3-7 1l1-8v-5h6l6 1c0 2 4 6 4 5v-6l-1-5h-6zM405 61q-4 6 0 11 3 3 6 2 3 1 6-2 5-6-1-11-6-6-11 0m9 3q4 2 0 5-3 3-6 0-3-4 0-6 2-2 6 1M257 60q-9 1-3 4 3 0 4 7l4 16q4 15 1 18-2 3 1 2c7 0 13-4 8-6q-3 0-6-21l-3-11v-8c2-2 3-2-6-1M177 61c-2 2-1 10 1 13 4 4 11 1 13-5q0-7-8-9zm9 5 2 3q-1 3-5 4-4-1-5-4 1-4 5-5zM224 68q-9 4-4 5 3-1 8 15l5 15q3 7 0 10-3 5 5 2l10-3 7-2 1-7q0-10-2-3c-2 6-11 11-14 6l-1-4-5-16-5-14 2-2q3-4 0-4zM354 67q-8 5-12 12c-5 9-2 22 6 30 5 4 15 7 21 5q7-5 1-5c-11 1-13 0-17-2q-8-6-7-17 2-11 9-17c6-5 20-1 24 6q4 9 4 1 0-9-5-10l-6-2q-9-3-18-1"/><path d="M423 67q-8 5-1 12 9 7 13-5c1-5-6-9-12-7m7 4q3 4-1 7-6 1-7-4c0-4 6-5 8-3M160 72c-5 6-1 14 6 14q8-1 8-9 0-5-6-7-6-3-8 2m10 3q3 5-1 7c-5 1-10-3-7-6q4-3 8-1M438 76l-2 3h8q7 6-1 8-2 2-5-2-4-3-3 0 1 5 7 6l5-3q3-2 3-6c0-6-7-10-12-7M388 90l-8 18q-1 6-4 7l-3 3 10 5q2-1 0-4-2 0 2-10l6-13 1-4 2 5 3 18 2 15q1 3 13-19l9-16 4-1 3-1-13-9q-3 0 0 5l2 3-5 8-9 15-4-27q1-22-11 2M143 80q-3 4-1 10 4 8 11 3 4-2 3-6l-1-6c-3-2-10-2-12-1m9 5q4 5-3 6-6 0-4-5 3-6 7-1M195 80q-9 4-14 11-3 5-2 11 1 21 20 26 14 1 23-12 3-4 3-13 0-13-9-18-12-8-21-5m9 6q7 2 13 12 6 11 0 17-9 10-20 6c-7-4-13-14-13-22q0-9 7-12t13-1M452 86c-2 2-2 10-1 12q3 3 9 2 4-1 2 3-1 4 2 6l6 2q3-1 3 3 2 6 9 7 4-1 3 3 1 7 7 8c7 0 10-9 6-14q-1-3-5-1-6 2-5-4 0-9-7-8-5 2-4-3l-2-5q-3-4-8-1-3 2-1-3 1-4-2-6-7-6-12-1m7 2q6 4 2 7t-8-1q-2-2 1-5 2-3 5-1m15 12q1 6-3 7c-5 2-8-3-4-6q4-3 7-1m9 10c3 0 3 6 0 7q-4 2-6-2-3-8 6-5m12 12q3 2 1 5t-5 1q-2 0-3-3c-1-4 4-7 7-3M132 91q-4 2-4 7 1 12 11 8 4-2 4-6 0-6-5-9zm7 6q4 4-2 6-5 0-6-3c-1-5 5-7 8-3M433 97v3c-1 4-20 32-23 32l-3 2q-2 2 1 3l4 2 4 2q3 0 2-2-1-3 11-21 9-13 12-12 5 0 3-3c-1-2-11-7-11-6M158 103c-4 2-17 13-16 14l3 1c4-1 6 1 21 17 8 9 9 10 8 13l1 2 9-8-5-4-8-7-2-3 3-4q7-5 4-15l-5-6q-6-3-13-1m7 5c2 0 7 6 7 8l-2 5q-3 6-11-4-6-6-4-7 3-3 7-2z"/><path d="M117 104q-6 4 0 12 4 4 6 3 6-1 7-7 1-4-2-7-5-5-11-1m9 4q2 6-4 7-7-1-4-7 5-2 8 0M104 118l-2 6q1 4-2 3c-9 0-11 8-5 15q5 4 9 0 2-1 2-6v-4h4q8 1 8-8-1-7-8-8-4 0-6 2m10 3v7l-5 1q-5-3-3-7 4-4 8-1m-11 11 1 5q-1 3-5 2-7 0-4-5t8-2M441 118c-12 5-18 22-12 33 4 7 16 15 19 12q2-3-2-4-5 1-10-6-6-8 0-20 4-11 17-11 7-1 10 3 5 3 5 9 0 5 2 4 3 1 4-4 2-7-2-7l-4-4-7-5c-6-2-16-3-20 0M342 129l-6 2q-4 5-16 5-10 1-11 3-5 5-14 6-12 3-8 12 2 3-2 8l-4 8q1 3-5 5-6 3-4 5 2 3-1 2h-3v-3q-4 0 1-4c7-4 7-4 7-14q-1-11-3-11l-5-2-5-3q-3-3-7-3t-5-2q-2-4-9-1h-4l-7-1q-6 1-8 4 0 4-6 2-5 0-8 2l-3 6-1 4-7-1h-12l-27 1-6 2q-7 2-18 13-7 7-8 13-1 3-9 6-3 0-12 9t-11 14c-3 7-2 8 1 14l2 8-1 8q1 4-5 12c-4 6-4 7-6 21 0 7-2 17-3 20-2 7-3 8-8 13l-6 7 3 4q2 1 2 5-1 5 9 6c5 0 15 4 20 8l8 3q7 0 1 2-11 4-13 16l-2 5q-2 1 4 10l4 8h5l5-1 1 6 5 15c5 11 6 14 4 17l-4 10-4 15c-2 7-2 8 4 15q4 5 13 2 5 0 4-5-3-15 20-6a194 194 0 0 0 65 14h7l4-4q6-7 8-16c1-4 1-5 8-9l8-4 3 3c3 3 3 3 12 4 9 0 9 0 12-3l4-4q0-3 7 0 7 2 6 6-1 5-10 5l-10 1-25 5v8l14 5 20 7 7 2 25-4 40-6 15-3q3-4-2-9l-8-3-16-5c-11-3-12-3-19-3-14 2-14 2-15-1q0-3 4-6l8-3q7-1 8-8-1-4 10-4 9-1 10-5 1-2-1-7l-3-8q1-9 4-15l3-5 4-9c4-5 4-6 4-12q0-9 5-9l6-2 4-1-2 12-3 13-4 15q-6 18-3 29l3 10 4 9q3 2 5 9l4 6q4-3 6-16l3-13 3-16c1-10 1-11 4-16l7-6c9-4 19-12 19-15q-1-3-5 2l-9 6q-12 5-18 16l-4 5 3-28q3-14 1-12c-2 1-5 22-6 34v16q4 7-2 19-2 7-3 3l-1-8q1-11-2-1-1 9-3 6l-4-7c-3-6-3-7-3-15q0-9 3-12l3-13 4-19c3-12 6-16 19-26l20-18c0-2 4-10 6-11q5-2 9 4a329 329 0 0 1-3 77q-2 4 1 6l3 1 1-10q0-11 2-12l1-32 2-31q2 1 3 17l8 51c2 0 0-15-3-34l-3-27q0-11-2-14-3-4 0-3l2-1q3 0-12-11c-6-4-13-14-14-20q-3-11 2-20l7-7q6-4 6-6l-1-3-7 5c-8 7-11 12-11 26v12l-3-2c-4-3-5-7-5-20 0-15 1-16 11-24q12-11 22-12c7 0 18 1 24 4 5 2 14 8 14 9l-6-1h-20q-15 3 5 4l17 1q-1 4-9 4l-6 1q-7 2 9 2l10 1v-3q-2-3 1-3 4-1 3 3 0 4 5 4c4 0 13 8 19 16l8 12q7 10 5 20a393 393 0 0 0 1 80c0 17 0 17-15 18l-16 2c-5 2-12 7-12 10q-2 11 10 0 10-8 16-8v28q-2 4-21 7l-10 3q-4 1-2 5h4c3-2 16-6 18-5q3 0 2 8 0 7-2 9h-3c-2-2-15-7-19-7l-2 2 6 4 6 4-3 1-5 2q-2 2-10-1l-7-1c0 1 9 6 13 7q3 1 6-1h4c0 1-8 4-12 4s-19-5-23-8l-8-1q-6-1-8 2-4 4-12 0-9-5-7-15l1-8 3-8q2-4 4-2 4 3 4-6l2-17q5-21 2-22l-7 16-6 16c-5 9-9 32-7 43q2 5-1 3-2 0-3 2-1 3-2 1l-2-1-4 2q-2 0-2-2l-1-3q-3-3-3 4 1 4-2 3l-3-3-2-3q-3 2-1 6 3 6 16 4 9 0 11-3 2-4 11-1l13 2 37 3q5 2 9-1c6-2 21-15 21-18l1-8q0-8 5-11 5-4 6-17l1-11 7-5 6-5V274l-3-5-9-13q-10-10-18-22l-8-10c-5-3-20-11-28-12q-17-5-33 0c-12 4-12 4-17-4l-9-16q-6-9-8-11l-7-8q-4-5-7-6-8-2-7-11c0-14-8-26-18-26l-3-1zm10 5 6 1-1 4q0 9-4 10-2 2-4-1-1-4-9 0-4 2-6 6-1 5-4 2v-9l2-6c1-2 9-8 12-8zm12 5q4 4 5 11 2 5-1 11-3 9-4 2l-2-8c-2-7-3-18-1-18zm-38 2-1 5-1 4-2 5-3 12-1 9q-4 3-6-2c-1-3-6-9-7-9l-1 2q-1 4-4-2-2-4-4-4-1 1-3-2-5-7 3-8l7-2q13-10 18-9zm-77 7 6 2q5 0 6 3 2 3 6 3l5 1v10q1 4-3 6-3 0-4-4 0-4-4 0h-3q-2-4 1-8 3-3-1-4t-5 6l-1 5q-3 1-4-3-1-5-4-6l-1 6q1 5-1 8-3 6-4-1 0-4-4-8-3-4-5-1l-1 5v5q-2 3-5 0t-3-5q-1-5-6-6-4 0-1 5t4 14q0 7-10 18t-10 17l-3 10q-3 8-1 13l1 15 1 14q2 5 3 11 3 9 6 9t1-4l-2-6-2-8c-2-3-2-5-1-21l1-17 17 15q4 5 10 6c9 2 13 0 20-11l5-5 2 1-3 7-2 5-1 2-2 4c-4 4-9 15-11 24q-2 16-8 13l-11-4-8-3q-3 2 1 5 3 1-2 1c-4-1-4-1-8 4l-4 6-1-1q-2-6-4-1l-1 4v-4q1-4-2-2-4-1 0-6 3-3-1-7l-2-3-5-12-8-21-4-10 3-11 3-15q0-5 5-15l5-10-2-1q-3 0-5 4-5 11-10 11l-6-4q-4-4-4-7 1-10 5-15c3-3 19-11 22-11q17-3 20-1 4 2 7-3l2-5q0-3 4-2l6 2q1 2 3-1v-3l1-4q2-3 5 1l5 6h3v-4q-3-5 2-5l4-1zm110 13q2 6-4 5-5-1-6 5l-4 4c-2 0-7 5-7 7q-1 3-3-3-3-7-1-11 1-4 3-2 8 6 5 0-2-4 2-1h3q3-1-5-6-3-3-3-5l7-1h9q2-3 2 2zm-201 7q3 3-4 8-8 10-8 16l-2 9q-3 8 2 11 5 2 5-9l1-7q1-3 2 0l3 4q6 5 1 8-5 5 3 6 6 1 2 4-1 2-10-1l-10-2-2 4q-1 3 4 3 6 2 6 6 0 6-6 1-5-3-10 0h-6v-6q2-7-2-7c-1 0-4 6-4 10l-2 6q-5 6-10-5l-5-6q-3 1-1 6l3 7q2 4-1 3c-4 0-11-12-10-18l10-12c9-9 9-9 14-9 6 0 7 1 11 8q4 8 7 5l-1-4-2-5-2-6q-4-8 0-14c4-4 22-18 23-17zm141 5c4 4 6 11 5 13q-1 3-5 3l-3-6q-1-5-6-4-12 0-3-12 1-3 5 0zm28-1 2 2 1 6c0 8-4 15-5 9l-1-4v-15q0-4 2-2zm48-3 9 8 9 10q4 3 6 8 3 10 8 16t-3 5l-7-2c-5-4-13-7-16-7l-7 2q-4 1-3 4 2 4-3 3h-5l1 5q0 7-3 6l-3-1q-1-3-4-1l1 3v4q-2 2-5-1-6-3-10-12-3-7-6-8-2 1 1 6l2 6 5 7 4 5-3 4q-7 8-9 14l-3 5c-1 0-8-7-11-12l-6-7q-4-4-4-9c0-4 2-9 3-6l1 7q1 9 3-2 0-6 5-15l5-11c1-4 5-10 7-10l8-1q6 0 7 5 2 7 3-1-1-4 5-6l2-3 2-7 2-5 1 4q2 9-1 14-3 4-2 9l-1 4q-1 3 1 4l3-3q2-4 3-1 0 4 4-2l5-4q6-2 1-4-3 0-3-3l-2-4-4-9v-9q2-5 7-2m-113 6q3 1 2 5-2 7-5 8l1-4q2-6-4-8-7-2-3 5 2 3-1 6l-4 5q-4 6-8 0l-3-4-5 3-6 3-5 3q-9 8-4-4c4-7 8-10 21-12l7-2q10-9 17-4m21 6 2 3-2-1q-6-4 0-2m12 6q2 6-3 8t-2-2q2-2 2-5-1-7 3-1m-25 4q3 0 7 4 3 5 10 6c5 0 6 0 12-3l9-5 4-2c4 0 10 7 10 12 0 2-11 16-13 16l-4-5-5-7h-21q-6 3-2 4l4-1q2-3 1 2-1 2 5 2 6-2 8 1 6 2 3 6v9q0 6 2 8 3 3 1 5h-4q-5 0-2 3 3 1 2 4l-1 6q-2 5 1 4 5 1-1 7-3 4-8 3-14-2-9-11 3-10 0-30 0-9-3-4v8c2 5 1 20-1 24v14c1 2 2 2 11 3q8 0 7 2 0 6 5-2l10-11c8-6 9-6 18 0l5 3v6q0 12-2 18l-2 6q1 5 4-1l2-6q2-4 6 0l4 3 6 5q4 6 8 4 3-2 5 1l2 3q-1 3-9 5-9 0-6 3l4 1q3-2 3 1l-8 14q-6 7-1 6 3-1 2 2 0 6-9 17c-7 9-9 12-12 20l-4 10q-3 3-2 9 2 11-3 17-1 2-1-2 2-6-3-3-4 2-5 11-1 5-2 3-2-3 0-11 1-3-2-4-3 0-3-2-1-6 7-23l7-18q3-24 13-36 5-8 5-14-1-1 1-3 3-4-1-4-1 1-4-2l-3-2 1 8 2 9-5 7c-5 7-7 13-10 26l-4 12q-2 0-3 3-2 7-2-3-1-10 5-15v-3q-3 1-6 6l-1 1 2-6 2-7c-1-2 1-20 3-26l2-13q-1-5 3-13 6-14 3-15-2 0-2 3c-1 6-7 16-10 18l-3 3 2 2c4 4 4 6 2 14l-3 12-2 17-3 18q1 7-6 9-4 1-3 5 2 5 6 6 3 0 2 3v14c-1 5-1 6 1 11s4 20 3 24q-3 6-9 0-11-10-13-31-1-16 3-25 3-6-3-16-3-6-2-11 0-5 3-4h10l4-7q3-4 5-6 5-1 0-6-3-2-1-5c3-4 2-15-2-22q-1-7-9-10l-10-3-7-2q-5-3-13 0-12 5-17 15-3 10-6 4c-2-3-2-5 4-24 4-11 5-12 8-14q11-7 12 4l1 5q3 4 2-6l-1-20q0-8-2-2-3 9-7 12h-2l2-7q4-5 4-11l3-9 4-7 5-5q8-4 3-6-1-3-5-1-4 1-7 11l-3 6q0 3-5 0l-9-3q-7 1-10-5c-3-5-3-5-2-12l3-9 4 1q5 4 12-1l8-5 4-3q1-4 3-1zm-50 15-8 9q-3 0 2-6 3-6 6-3m5 9q-1 3 3 3 8 4 2 5-8 1-11 16-1 3-1-1 0-6-3-4t-6-4 1-7l9-6 6-5zm200 5q-11 8-14 16c-2 4-3 19-1 27q3 11-2 2-6-13-3-25c3-9 16-23 22-23zm-11 0-5 7-7 11c-1 5 1 24 2 29q3 7 9 11l3 5q1 3-3 4c-6 2-19 1-20-2q-2-3 4-11l4-5v-11l-2-11-1 13q-1 9-3 8l-1-7q0-11-4-7h-5q-8 2 0 4 6 2 5 4l-2-1-15-1q-6-1-5 3 0 6 3 6l3-2q0-3 4-3 8-1 8 3l-2 2-1 3q2 4-2 3l-3-1v6q2 7-2 10l-5 4q-3 1-5-3-3-3-1-3l1-3q0-4-8 0l-3 2 1-2q0-6-7 0l-4 3-5-4q-8-8-5-19 1-12 10-20c8-6 13-7 25-4 11 2 12 3 15 7l4 4c2 1 0-7-2-9q-1-1 4-1h5q1-3-15-5-10 0-11-2h-5q-6 0 0-5c5-4 7-5 22-7zm-181 8zc-3-1-4 3-1 4l1 2q-1 4 6-2 4-5 7-5l5 2q2 1-3 1h-5q-3 3 2 4 3 0 0 3-4 4-6 0t-5 3q0 3-2 3c-3 0-8-7-7-11q2-5 6-6zm-87 7q4 1 4 4l3 4q4 3-2 3-2 0-6-4-2-5-5-5-6 0 0 4l2 3c0 2-22 5-30 5q-10-1-11-6l1-2h10c8 0 9 0 17-4q12-6 17-2m23 15q1 3-6 5c-5 3-13 4-13 2q0-2 8-7c8-6 9-6 11 0m139 0q-1 6-5 6-3-1 1-7 4-3 4 1m10-1-1 2-2-2 1-2zm-209 6q8 3 11 1l7-1q3 0 4 3 1 4 2 2l5-1q4 0 3 2 1 6 4 4t4-1l4 15q0 5-2 7c-2 2-2 2-1 9l4 9 2 6 1 3-9-1q-13-1-15 7-3 8-7 8l-3-1q-1-2 2-10c4-8 4-10 5-26l1-19q-3-5-3 4l-2 9q-2 3-2 16v12l-6 12-8 14-2 2-4-3q-3-3-6-4-6 1-1-10l4-11c3-4 5-22 4-23q-4-1-4 6c0 18-9 34-17 33q-3 0-4-4 0-4-3-4-5-2 1-5 5-6 9-16l3-17q1-18 8-26l2-3zm60 15q4 27-4 34-2 3-5-1l-6-13h3q2 1 3-3c0-2-2-12-5-18q-3-6 3-3 3 2 5-1 5-7 6 5m10 16-1 4q-3 7-2-2l-2-10v-4l3 5zm96 1q4 3 7 3l7 2q4 1 2 2-3 1 2 6 6 7 4 11-3 2-6-6-1-5-7-7-9-5-7-2l4 5q9 4 6 8-3 3-10-4l-5-4q-3 1 1 6 6 4 1 8l-3 2-2-4-5-7q-4-3-4-1l2 5 3 4q0 6-4 7-2 0-3-5-1-6-3-8l-1 3q1 2-2 2c-4-1 0-14 6-18q12-9 6-9-3 0-1-1 4-3 11 2m-24 9-1 1q-3 2-1 3l-1 5q-1 5-2 5c-2-1-2-11 0-14q3-4 5-1m-27 1q12 5 5 6-6 1 4 4 6 2 10 7l11 9c8 6 9 7 8 12q0 4-2 2l-1-4c0-3-17-18-21-19q-6-1-5 2l7 4 9 6c2 3 2 4 3 14s1 11-1 13l-3 3-5 2q-2 4-3-2 0-2-2-2t-2 5q-1 10-11 15-8 4-13 1-9-4 2-11 6-4 5-6l-4-14-3-4q-3-3-2-5 1-3-4-2c-3 1-10-1-10-3h-4l-2 1q0-3 7-5l12 1c15 3 16 3 16 2q1-3-20-8l-7-1-6 3-7 3-3 1q-2 2 1 3t2 7c0 6 0 7-3 11l-3 6q-1 3-3 0l-7-7q-6-9 1-9 5-2 5-5t-10 2c-7 3-7 3-12 2q-10-1-11-9l-3-4q-4 0-1 6c1 3 1 3-1 8l-2 6 5-2c6-2 5-2 7 3h4q2-2 6 1l4 1q2-1 3 5l-1 10q-3 12 1 8l1-4 5-10q3 0-1 14c-2 8-2 8-1 12q3 7-2 7-1-1-3 2-1 2-10 3-12 0-10 3l5 2h24c0 2-9 5-15 5l-8-1q-7-3-9 0l2 2c8 2 8 2 9 6q3 8 5 2 0-4 4-3 4 0 7 3t3 1l1-3q1-2 2 0l1 2q1 2 3-1l2-2 3 2q7 5 4 7l-1 4q0 3 6 2t7 4l3 3q2 0 3-3l2-1q4 2 4-3-1-5 4-4 5 0 5 2l-3 5q-7 13 3 4c4-4 4-4 4-9l-4-14c-3-10-5-23-3-23q2 0 5 14l3 6q5 7 6 24c0 9 0 10-2 12-3 4-17 9-23 9l-7-1q-3-1-1-2 8-5 6-6-1-1-4 1c-7 4-8 4-12 2l-10-4q-6-2-10-7-7-6-6-3l-1 2q-4 2-10-6l-5-5-1 2-4 2q-6-1-9-10l-5-8-4-10q0-9 4-4 4 4 4 1l-1-4q-3-6 2-6 3 1 3-2 1-4-9-3-9 1-5-5 1-4-6 1l-4 3q-7 0-3-7 3-3-2-3-5-1-1-10 6-12 16-5 5 4-2 4-8 0 3 5l13 6q6 2 8 8 3 11 8 12 6 1 1-4l-5-10q-4-11-10-11c-4 0-15-12-14-15q1-3 9-8 4 0 4-9l1-9q2-5 10-5 3 0 4 3l1 2 7-5c9-8 25-16 25-13q0 4 8 6h4l4-6c5-8 6-9 14-9zm188 2-7 7-9 8q-2 4-3 1c-2-3-2-11-1-13q1-2 9-3h11m10 0-8 10-8 10 9-7q15-16 8-5c-4 9-6 12-17 19q-16 12-13 3 3-10 14-20l9-9q4-3 6-1m-42 9v17c-1 16-2 20-5 20q-2-1-12 1l-10 2c-3 0 4-24 8-28l5-6q6-10 12-10 2 1 2 4m8 2 2 10c1 5 1 6-2 17q-4 6-6 3c-1-2 1-30 2-33q4-5 4 3m-108 9q3 3-2 11-4 6-9 5-3-1 1-9 6-10 10-7m20 6-1 2-4 6q-2 7-8 7-5-1-5-3l4-3q3-1 5-3 2-6 5-7zm-170 9v2l-12 8-1-4q-1-4 4-6 7-4 9-1m78 9c3 4 6 11 4 12l-3 1q-3-1-4 5l-6 13c-4 9-5 10-5 17l-1 8 4 1 5 1c3 1 13 15 13 16l-4-3q-6-6-7-3l2 6 2 6q-1 2-3-2l-4-4q-2-1 1 7 0 3-2 1l-2-4-1-3q-1-2-3 1-4 5-3-2 3-3-4-7c-7-6-8-8-9-18v-15l9-28q3-10 14-9 3-1 7 3m68 6 1 14 2 12q1 8-6 9-4 0-4 3 0 2 4 2 7 0 4 4-3 3-1 4l2 8 4 14 3 11q-2 6-6 8-4 0-1-3 3-4-3-5l-4 4q-1 4-2 2l-3-2q-4 0 2-7 4-4 3-10c-1-6-7-19-12-26q-7-11 2-13 3 0 5-8 1-5 4-5 8-3-3-11-8-5-2-10 2-3 7-2l5 1zm89 5q0 9-5 9-5 2 0 4c2 1 2 1-3 10l-6 21q-2 4 1 7l2 5-8 3 1-3q3-5-2-3l-2 4q0 5-3 2c-1-2 0-16 1-22l2-11c0-8 2-20 4-24l6-4 5-1h4q4-1 3 3m-119 14q1 4-4 12l-6 12q-6 11-9 12-3-2-5-12c0-7 0-7 2-10l8-6 8-6q4-5 6-2m62 9-2 3q-4 3-1-2t-6-5q-8-1-1-3l4-1q1-1 4 3zm-55-2q0 5-2 2c-1-2 2-7 3-6zm85-2-6 27q-5 6 1 10 5 4 2 10-2 4-2 1-2-5-6 2-5 9-8 8l-1-6q0-6 2-8c5-6 6-10 7-21 1-12 2-15 7-22q4-5 4-1m-164 0-3 3 2-4zm33 9c3 2 4 3 4 11l-1 7c-2 0-12-8-12-9 0-3 4-11 5-11zm43 13q0 13 4 10v-5q-2-11 8 7l2 6-4 1q-4 0-4 2l2 2v2q-4 6 6 2 3-3 3-1 0 5-10 10l-9 6-5 2q-3 0-6-14c-5-15-5-15 0-22q5-6 6-10 6-15 7 2m64 25zl1-2zm1 9q-1 7-5 7-2-1 1-7t4 0m-169 6 25 10 20 8c5 3 7 3 16 3 14 0 18-2 22-11l4-6 3 3q4 6-5 16-5 6-7 4l-16-1c-11-1-14-1-29-6l-37-13-4 4-6 5q-3 1-3 4 0 6-4 6l-4-3c-3-5-3-5 2-14l4-11q0-7 6-5zm134 25q22 8 15 8c-4 0-33-10-35-12q-2-3 20 4m95-4c0 2-5 3-23 5l-16 3-10 2-13 1q-14 3-12 0c0-2 1-2 23-5q24-3 23-6l14-1zm-86 3 8 2 16-2 29-3-11 2-30 4h-8l-8-4q-5 0-5-2z"/><path d="M284 224q-2 6 3 3l4-1q3 1 2-3 1-3-5-3-5-1-4 4M272 230l-1 17 2-6q0-12-1-12M268 258q-2 18 1 18v-17zM373 250q-3 4 0 4l4-6q-1-3-4 2M373 270q-2 0-2 3 0 4 3 4t2-2l1-3 1-2zM501 130q-4 3-5 8 1 6 7 7 7 0 8-7 2-4-1-5-5-4-9-3m5 3c4 2 2 8-2 8-5 0-7-6-3-8zM84 141q-2 1-2 7v6h-4q-7 0-6 9 1 5-2 4-8-1-6 12 2 4-1 3c-5 0-9 7-7 11q2 4-1 3-4 1-6 6-1 2 1 4 2 3-2 6l-4 5 2 4q2 4 6 4 10 0 6-11l2-3q6-2 4-9-2-4 1-4c5 0 8-7 5-12q-2-2 3-3 6-2 5-10 0-4 2-3l5-2q3 0 2-7l-1-5h3q7 0 7-8c0-5-7-9-12-7m8 5q4 8-5 6-4-1-3-6 4-4 8 0m-10 12q3 3 1 7-4 3-8-2-2-2 1-4 2-4 6-1m-8 15q3 2 1 4-3 5-7 2c-2-1-3-6 0-7q3-2 6 1m-7 14q2 5-2 8-8 0-5-7c0-2 5-3 7-1m-7 14q3 6-3 8-5 0-5-5 2-7 8-3m-4 14q3 4-1 6-5 2-8-3 1-8 9-3"/><path d="M510 144c-7 3-5 14 3 14 6 0 10-10 5-13q-3-3-8-1m7 6q-1 7-6 4l-3-3q0-4 5-4 4 1 4 3M466 147q-12 6-12 22 0 15 14 21c9 4 23 0 28-7q4-7 4-16 0-10-8-18-11-9-26-2m24 8q8 8 4 15-5 10-15 14t-16-4q-5-3-4-9 0-5 3-11 4-9 18-9c6 0 6 0 10 4M518 158q-4 4-3 9l2 3h2l3 1v5q-3 7 6 8 6 0 3 3-3 4 0 8 4 5 10 1 4-1 4-7 1-5-6-6-3 0-3-2v-10l-5-2h-3l1-5q1-5-2-6-5-4-9 0m7 4c2 2-2 6-4 6q-5-3-1-7 3-2 5 1m8 13q2 3-1 4-4 4-7-1l1-4q4-3 7 1m8 13c3 4-3 9-7 5l-2-3c0-3 7-4 9-2M541 201q-7 9 1 13c8 3 15-8 8-13q-5-4-9 0m8 6q0 3-4 4-3 1-4-2-2-5 5-6 2 0 2 4M545 218q-4 6 0 10c8 6 17-4 11-10q-5-5-11 0m7 1q3 1 2 4 0 4-3 4-7-2-4-8zM44 227q-3 3-3 8l-2 6-3 5q-1 4 2 6l2 3-3 3q-6 8 2 13 11 3 12-7l-3-6-4-3 3-1q7-2 4-9-3-5 1-5c2 0 5-5 5-7l-3-4q-5-5-10-2m8 4 1 4c-2 5-9 3-9-2l1-3q4-2 7 1m-5 13q5 3 0 7-3 3-4 1-6-3-2-7 2-3 6-1m-1 17q5 6-3 7-5 1-5-3-1-3 2-4 4-4 6 0M551 235q-6 5-1 10 3 5 9 2 4-2 4-8-1-6-7-7-3 0-5 3m8 3q2 4-3 6-7-1-4-7 4-3 7 1"/><path d="M556 250c-8 4-4 14 4 13q11-4 4-12-5-4-8-1m5 3c4 3 1 9-4 7q-3-3-1-8 2-2 5 1M499 259q-1 3 1 20l5 38c2 19 3 23 5 22l-1-9a479 479 0 0 1-8-71zM557 267c-7 5 0 15 8 11q6-3 2-10-4-5-10-1m7 3q2 4-1 6-1 2-4-1-4-2-1-4 4-3 6-1M37 275q-3 2-3 6 0 8 8 8c7 0 10-8 4-13q-3-6-9-1m8 3q3 4-1 7-5 2-8-3c-1-4 6-7 9-4M559 281c-6 2-7 9-3 13l3 2-3 2q-4 8 3 11h7q7-5 1-11l-3-3 2-2 3-5c0-4-6-8-10-7m7 5q0 7-7 5-6-3 0-7 5-1 7 2m-1 14c3 3 0 8-5 7q-5-2-1-6 3-4 6-1M32 294q-4 2 0 10 2 3 6 3c7 0 11-8 5-12q-4-5-11-1m10 2 1 3q0 5-5 5t-5-5c0-3 6-5 9-3M456 293q-1 2 9 8c6 4 6 4 7 9l5 29 2 13-6 10-9 15q-9 21-7 40 2 14 6 15v-28q3-7 4 6 2 13 4 13l-1-17q-2-25 2-34l3-7 5-7 4-4-1-4c-2-6-4-21-4-29q1-9 3-7l5 1q5 1-3-6l-9-7-5-4-8-3zM37 311c-4 2-5 11-1 14q4 3 10 0l2-6q-2-10-11-8m6 4q6 2 3 6-5 4-9 0-4-2 0-5 2-3 6-1M558 312q-8 4-2 11c5 4 12 1 12-5l-1-5q-4-2-9-1m6 4q2 4-2 7-4-1-6-5c0-4 6-6 8-2M554 328q-2 1-2 5 1 12 12 6c8-5-1-15-10-11m8 4q3 2 0 5-4 4-7-2v-4q4-2 7 1M39 329q-5 1-5 7-2 4 2 6 7 2 12-1c2-2 1-8-1-10q-4-3-8-2m7 5q2 7-4 6-4 1-5-2-1-6 5-6 3 0 4 3"/><path d="m551 346-3 4q1 6 7 7c3 0 9-4 9-6q0-4-5-7-6-3-8 1m8 2 1 3c-2 5-9 4-9-1l1-3q5-2 7 1M39 347q-3 2-3 6 1 8 8 7 7 0 7-8 1-4-3-6t-9 1m9 3q3 6-5 7-3 1-4-2c-3-6 5-9 9-5M496 349l-1 3zq2-5-1-1M546 360q-5 5-1 11 1 3 5 2 8 0 8-7c0-7-7-10-12-6m6 2q6 3 1 8h-5q-4-3 0-8zM44 366q-7 7 2 13c7 4 14-7 9-13q-5-5-11-1m9 2q2 4-1 6-9 3-7-5 3-4 8-1"/><path d="M542 376q-3 2-3 6 0 7 6 7t8-4-3-9q-5-3-8 0m8 5q0 5-5 5c-6-2-4-8 1-8q4 0 4 3M51 385q-5 4-1 10 5 5 11-1c6-8-3-17-10-9m8 2q5 2-1 6c-4 3-9-1-5-6q2-4 6 0"/><path d="M537 391q-5 5-1 11c2 2 9 3 11 1q3-5-2-11-3-4-8-1m6 3q4 2 0 6-3 4-6-1-2-2 1-4 3-3 5-1M58 401c-4 5-1 12 5 12q5-1 2 4-5 8 4 11 4 0 2 3-2 11 6 11h4v5q-1 9 6 8 7 1 4 3-2 5 2 9 4 5 10-1 4-3 2-7-1-6-7-6-4 0-4-4-1-8-7-9-4 1-2-3v-5q-1-4-8-4-3 1-1-2l3-5q0-8-7-9-3 1-2-2l2-5c1-6-10-10-14-4m10 4q-2 9-8 2-2-5 4-5 4 0 4 3m7 13q3 6-5 6-5-1-3-6 3-4 8 0m7 15q3 5-4 6-4 0-4-3l1-4q4-2 7 1m9 12q3 8-6 6c-4-2-2-7 3-7zm10 13q3 2 1 4-5 4-8 0v-4q4-4 7 0M436 405l-2 12-3 12c0 4 3 14 5 17 4 4 3-3 0-10q-3-5-1-8c3-11 5-25 2-26zM530 407q-5 8 4 11 3 2 5-1 6-7-1-12-5-3-8 2m9 5-2 3q-3 2-5-1-5-3 0-5 3-3 4-1zM484 408q-3 2 8 6c12 5 17 3 6-3q-12-5-15-3M525 418q-5 1-5 7 1 7 7 7 4 0 5-3 3-6 1-9-4-3-8-2m6 5q2 3-3 6-4 0-6-4c0-5 6-6 9-2M512 433q-3 6-1 11c3 5 12 4 14-2q0-6-4-9zm8 4 2 2q-1 4-4 5-4-1-6-4 1-4 5-5zM502 448q-4 3-3 10l5 4h6c7-4 4-15-3-15zm8 5c3 4-4 8-7 4q-3-2 0-4 4-3 7 0M490 463l-2 5 2 4q2 3 7 3 5 1 6-5 2-5-4-8-4-4-9 1m9 3q2 4-3 6c-4 1-7-4-4-7q3-2 7 1M105 469q-5 4-1 9c2 6 10 5 13-1q3-7-2-10-6-3-10 2m9 2 1 4q0 3-4 3-6 0-4-5 3-5 7-2M480 474q-3 2-3 5-1 4 2 6l5 3q5-1 8-5 0-7-6-10c-4-1-3-1-6 1m8 5q-1 6-6 4c-4-2-2-7 3-7q3 0 3 3M118 480c-4 2-4 11-1 14 4 3 12-1 12-6 1-7-6-11-11-8m8 4v4c-2 5-8 4-8-1q1-6 8-3M209 484l1 3 3 13c0 11 0 12-2 15l-3 3 7 1q9 0 4-3-2 0-3-11-2-18 7-3l6 6 4-6q7-15 6 2 0 9-2 11-4 4 3 4 7-1 5-3v-29q4-4 0-4-7 0-8 4l-8 12-6-7q-4-8-7-8zM253 484v2l1 15-1 15-2 2 6 1q9 0 4-3c-2-2-2-4-2-15 0-12 0-13 2-14l2-3z"/><path d="M272 484q-3-1 0 3l1 16c0 10 0 11-2 13q-7 4 9 4c10 0 10-1 12-3q4-6 1-7l-3 2q-1 4-10 3c-2 0-2 0-2-14 0-12 0-13 2-14q5-4-2-4zM331 494c0 16-1 20-4 21q-3 0-7-13l-7-15-3-2q-2-1-4 9c-6 17-7 21-9 21q-2 3 1 4 6 1 8-1l-1-3-1-3q1-2 7-2l6 2v8l10-1q15-1 10-3-4-1-4-9l1-8q1-3 4 2l8 11 7 7c1 0 2-2 2-15 0-12 1-15 2-17q4-3-4-3-7 0-3 4c2 3 2 4 2 11v8q-1 2-8-8-9-15-12-16zm-18 5 1 6h-8l4-10z"/><path d="M370 486q-17 12-6 29 5 7 12 6 12 0 17-9 7-16-5-25c-4-3-14-4-19-1m14 5c6 3 8 12 4 19-3 6-11 9-16 6-3-1-7-10-7-14q1-8 5-12c3-1 11-1 14 1M467 486c-4 5-1 13 5 13q6-2 8-8c0-6-10-9-13-5m9 4q-2 8-8 3v-4q5-5 8 1M130 493q-8 9 2 14c7 1 13-10 9-14q-5-5-11 0m8 5-1 4c-4 2-9-4-6-6l3-1q4 0 4 3M453 499q-2 2-2 6 2 7 7 7 10-1 8-11-6-9-13-2m8 2q3 1 1 5c-1 4-8 2-8-2q1-5 7-3M144 503q-6 4-4 11 3 5 9 4t6-9q0-4-3-6-5-3-8 0m7 5v4q-2 3-6 0-3-2-1-4c1-3 6-2 7 0M439 508q-5 5-2 9 2 5 8 5c6 0 8-10 3-14q-5-4-9 0m8 3q2 4-1 6-4 3-6 0-3-2 0-5t7-1M158 513c-5 4-3 14 4 14q7 1 7-8 1-6-2-7-4-2-9 1m7 3c5 2 1 8-4 6q-5-2-2-6zM426 516c-7 3-4 16 4 16q6 0 6-8 1-5-3-7-3-3-7-1m7 5q3 3-2 6c-4 3-8-3-4-6q2-5 6 0"/><path d="M173 520q-4 2-4 9t7 6q6 0 8-7 0-10-11-8m7 5c3 3 0 8-4 7-5-2-5-8 0-8zM413 525c-6 1-7 9-2 13q4 6 9 1 3-3 2-6 0-4-2-7-3-3-8-1m5 5 1 4q0 3-4 2-4 0-4-3 1-7 7-4M187 527q-6 11 2 14 4 2 6-1l3-2 2 4q1 5 5 5c5 0 9-8 5-14q-3-4-9 0-2 2-2-1c0-6-9-9-12-5m7 3c4 2 1 8-3 7q-6-3-2-7zm14 6q4 3 0 6h-5q-3-2-1-5 2-4 6-1M395 534c-7 4-6 11 2 13q11 2 11-7-2-7-8-8zm8 4q3 4-1 6h-5q-5-3-1-6 4-4 7 0M218 538c-5 2-5 9 0 13q3 3 6 1 6-3 5-9-1-10-11-5m8 5q3 5-4 5-6 0-4-5 3-6 8 0"/><path d="M379 540c-5 5-1 14 6 14s8-12 1-15q-5-2-7 1m8 3q3 4-1 7h-5q-5-6 3-8zM233 543q-2 1-2 7 1 7 3 7c6 3 12-3 11-10-2-5-9-8-12-4m9 4q2 6-7 5c-2 0-3-5 0-6q4-1 7 1"/><path d="M364 544c-4 3-2 13 2 15q6 0 9-6 2-3-1-7-4-6-10-2m8 3 1 4q-1 5-7 3-4-2 0-6 2-3 6-1M250 547c-6 5-2 16 5 15q7-1 6-9 1-4-3-6-4-6-9 0m7 4q3 2 0 4l-3 2q-7-1-3-6 3-3 6 0"/><path d="M349 547c-6 2-5 13 2 15q4 2 7-5 4-7-3-10zm6 4c4 3 1 9-4 6q-5-3-1-7 2-2 5 1"/><path d="M332 550q-5 5 1 12 6 5 10-3 3-7-3-9-5-3-8 0m8 3 1 3q0 3-4 3-5 0-5-2 1-6 8-4M268 550c-8 4-1 17 7 14q6-3 5-8c0-5-7-9-12-6m7 3q4 4-1 6-3 2-5-1l-3-2 3-2q4-3 6-1M284 551c-3 2-3 9 0 12q4 4 9 1l2-3q2-3 3-1l2 5q3 3 6 1 7-1 6-8 0-4-3-6-5-4-9 1-3 3-4 1-6-8-12-3m8 3q5 2 0 5-2 3-4 1-6-3-2-6 3-3 6 0m15 1q4 4-1 7-7-1-5-7z"/><path d="M315 551q-3 2-1 7l3 5c8 4 14-4 9-11q-5-6-11-1m9 3q3 5-3 6-6-1-5-5 3-3 8 0"/></svg>